<svg width="1440" height="1609" viewBox="0 0 1440 1609" fill="none" xmlns="http://www.w3.org/2000/svg">
<mask id="mask0_558_3" style="mask-type:luminance" maskUnits="userSpaceOnUse" x="-161" y="0" width="1741" height="1609">
<path d="M-161 0H1580V1609H-161V0Z" fill="white"/>
<path d="M-160.5 0.5H1579.5V1608.5H-160.5V0.5Z" stroke="white"/>
</mask>
<g mask="url(#mask0_558_3)">
<path d="M-119.138 -252.891H-247.072V-112.959M-119.138 -252.891V-112.959M-119.138 -252.891H8.79611M-247.072 -112.959H-119.138M-247.072 -112.959V26.971M-119.138 -112.959H8.79611M-119.138 -112.959V26.971M8.79611 -252.891V-112.959M8.79611 -252.891H136.73M8.79611 -112.959H136.73M8.79611 -112.959V26.971M-119.138 26.971H-247.072M-119.138 26.971H8.79611M-119.138 26.971V166.903M-247.072 26.971V166.903M136.73 -252.891V-112.959M136.73 -252.891H264.664M136.73 -112.959H264.664M136.73 -112.959V26.971M8.79611 26.971H136.73M8.79611 26.971V166.903M264.664 -252.891V-112.959M264.664 -252.891H392.599M264.664 -112.959H392.599M264.664 -112.959V26.971M136.73 26.971H264.664M136.73 26.971V166.903M392.599 -252.891V-112.959M392.599 -252.891H520.533M392.599 -112.959H520.533M392.599 -112.959V26.971M264.664 26.971H392.599M264.664 26.971V166.903M520.533 -252.891V-112.959M520.533 -252.891H648.467M520.533 -112.959H648.467M520.533 -112.959V26.971M392.599 26.971H520.533M392.599 26.971V166.903M648.467 -252.891V-112.959M648.467 -252.891H776.401M648.467 -112.959H776.401M648.467 -112.959V26.971M520.533 26.971H648.467M520.533 26.971V166.903M776.401 -252.891V-112.959M776.401 -252.891H904.335M776.401 -112.959H904.335M776.401 -112.959V26.971M648.467 26.971H776.401M648.467 26.971V166.903M904.335 -252.891V-112.959M904.335 -252.891H1032.27M904.335 -112.959H1032.27M904.335 -112.959V26.971M776.401 26.971H904.335M776.401 26.971V166.903M1032.27 -252.891V-112.959M1032.27 -252.891H1160.2M1032.27 -112.959H1160.2M1032.27 -112.959V26.971M904.335 26.971H1032.27M904.335 26.971V166.903M1160.2 -252.891V-112.959M1160.2 -252.891H1288.14M1160.2 -112.959H1288.14M1160.2 -112.959V26.971M1032.27 26.971H1160.2M1032.27 26.971V166.903M1288.14 -252.891V-112.959M1288.14 -252.891H1416.07M1288.14 -112.959H1416.07M1288.14 -112.959V26.971M1160.2 26.971H1288.14M1160.2 26.971V166.903M1416.07 -252.891V-112.959M1416.07 -252.891H1544.01M1416.07 -112.959H1544.01M1416.07 -112.959V26.971M1288.14 26.971H1416.07M1288.14 26.971V166.903M1544.01 -252.891V-112.959M1544.01 -252.891H1671.94V-112.959M1544.01 -112.959H1671.94M1544.01 -112.959V26.971M1416.07 26.971H1544.01M1416.07 26.971V166.903M1671.94 -112.959V26.971M1544.01 26.971H1671.94M1544.01 26.971V166.903M1671.94 26.971V166.903M-119.138 166.903H-247.072M-119.138 166.903H8.79611M-119.138 166.903V306.833M-247.072 166.903V306.833M8.79611 166.903H136.73M8.79611 166.903V306.833M136.73 166.903H264.664M136.73 166.903V306.833M264.664 166.903H392.599M264.664 166.903V306.833M392.599 166.903H520.533M392.599 166.903V306.833M520.533 166.903H648.467M520.533 166.903V306.833M648.467 166.903H776.401M648.467 166.903V306.833M776.401 166.903H904.335M776.401 166.903V306.833M904.335 166.903H1032.27M904.335 166.903V306.833M1032.27 166.903H1160.2M1032.27 166.903V306.833M1160.2 166.903H1288.14M1160.2 166.903V306.833M1288.14 166.903H1416.07M1288.14 166.903V306.833M1416.07 166.903H1544.01M1416.07 166.903V306.833M1544.01 166.903H1671.94M1544.01 166.903V306.833M1671.94 166.903V306.833M-119.138 306.833H-247.072M-119.138 306.833H8.79611M-119.138 306.833V446.765M-247.072 306.833V446.765M8.79611 306.833H136.73M8.79611 306.833V446.765M136.73 306.833H264.664M136.73 306.833V446.765M264.664 306.833H392.599M264.664 306.833V446.765M392.599 306.833H520.533M392.599 306.833V446.765M520.533 306.833H648.467M520.533 306.833V446.765M648.467 306.833H776.401M648.467 306.833V446.765M776.401 306.833H904.335M776.401 306.833V446.765M904.335 306.833H1032.27M904.335 306.833V446.765M1032.27 306.833H1160.2M1032.27 306.833V446.765M1160.2 306.833H1288.14M1160.2 306.833V446.765M1288.14 306.833H1416.07M1288.14 306.833V446.765M1416.07 306.833H1544.01M1416.07 306.833V446.765M1544.01 306.833H1671.94M1544.01 306.833V446.765M1671.94 306.833V446.765M-119.138 446.765H-247.072M-119.138 446.765H8.79611M-119.138 446.765V586.696M-247.072 446.765V586.696M8.79611 446.765H136.73M8.79611 446.765V586.696M136.73 446.765H264.664M136.73 446.765V586.696M264.664 446.765H392.599M264.664 446.765V586.696M392.599 446.765H520.533M392.599 446.765V586.696M520.533 446.765H648.467M520.533 446.765V586.696M648.467 446.765H776.401M648.467 446.765V586.696M776.401 446.765H904.335M776.401 446.765V586.696M904.335 446.765H1032.27M904.335 446.765V586.696M1032.27 446.765H1160.2M1032.27 446.765V586.696M1160.2 446.765H1288.14M1160.2 446.765V586.696M1288.14 446.765H1416.07M1288.14 446.765V586.696M1416.07 446.765H1544.01M1416.07 446.765V586.696M1544.01 446.765H1671.94M1544.01 446.765V586.696M1671.94 446.765V586.696M-119.138 586.696H-247.072M-119.138 586.696H8.79611M-119.138 586.696V726.626M-247.072 586.696V726.626M8.79611 586.696H136.73M8.79611 586.696V726.626M136.73 586.696H264.664M136.73 586.696V726.626M264.664 586.696H392.599M264.664 586.696V726.626M392.599 586.696H520.533M392.599 586.696V726.626M520.533 586.696H648.467M520.533 586.696V726.626M648.467 586.696H776.401M648.467 586.696V726.626M776.401 586.696H904.335M776.401 586.696V726.626M904.335 586.696H1032.27M904.335 586.696V726.626M1032.27 586.696H1160.2M1032.27 586.696V726.626M1160.2 586.696H1288.14M1160.2 586.696V726.626M1288.14 586.696H1416.07M1288.14 586.696V726.626M1416.07 586.696H1544.01M1416.07 586.696V726.626M1544.01 586.696H1671.94M1544.01 586.696V726.626M1671.94 586.696V726.626M-119.138 726.626H-247.072M-119.138 726.626H8.79611M-119.138 726.626V866.558M-247.072 726.626V866.558M8.79611 726.626H136.73M8.79611 726.626V866.558M136.73 726.626H264.664M136.73 726.626V866.558M264.664 726.626H392.599M264.664 726.626V866.558M392.599 726.626H520.533M392.599 726.626V866.558M520.533 726.626H648.467M520.533 726.626V866.558M648.467 726.626H776.401M648.467 726.626V866.558M776.401 726.626H904.335M776.401 726.626V866.558M904.335 726.626H1032.27M904.335 726.626V866.558M1032.27 726.626H1160.2M1032.27 726.626V866.558M1160.2 726.626H1288.14M1160.2 726.626V866.558M1288.14 726.626H1416.07M1288.14 726.626V866.558M1416.07 726.626H1544.01M1416.07 726.626V866.558M1544.01 726.626H1671.94M1544.01 726.626V866.558M1671.94 726.626V866.558M-119.138 866.558H-247.072M-119.138 866.558H8.79611M-119.138 866.558V1006.49M-247.072 866.558V1006.49M8.79611 866.558H136.73M8.79611 866.558V1006.49M136.73 866.558H264.664M136.73 866.558V1006.49M264.664 866.558H392.599M264.664 866.558V1006.49M392.599 866.558H520.533M392.599 866.558V1006.49M520.533 866.558H648.467M520.533 866.558V1006.49M648.467 866.558H776.401M648.467 866.558V1006.49M776.401 866.558H904.335M776.401 866.558V1006.49M904.335 866.558H1032.27M904.335 866.558V1006.49M1032.27 866.558H1160.2M1032.27 866.558V1006.49M1160.2 866.558H1288.14M1160.2 866.558V1006.49M1288.14 866.558H1416.07M1288.14 866.558V1006.49M1416.07 866.558H1544.01M1416.07 866.558V1006.49M1544.01 866.558H1671.94M1544.01 866.558V1006.49M1671.94 866.558V1006.49M-119.138 1006.49H-247.072M-119.138 1006.49H8.79611M-119.138 1006.49V1146.42M-247.072 1006.49V1146.42M8.79611 1006.49H136.73M8.79611 1006.49V1146.42M136.73 1006.49H264.664M136.73 1006.49V1146.42M264.664 1006.49H392.599M264.664 1006.49V1146.42M392.599 1006.49H520.533M392.599 1006.49V1146.42M520.533 1006.49H648.467M520.533 1006.49V1146.42M648.467 1006.49H776.401M648.467 1006.49V1146.42M776.401 1006.49H904.335M776.401 1006.49V1146.42M904.335 1006.49H1032.27M904.335 1006.49V1146.42M1032.27 1006.49H1160.2M1032.27 1006.49V1146.42M1160.2 1006.49H1288.14M1160.2 1006.49V1146.42M1288.14 1006.49H1416.07M1288.14 1006.49V1146.42M1416.07 1006.49H1544.01M1416.07 1006.49V1146.42M1544.01 1006.49H1671.94M1544.01 1006.49V1146.42M1671.94 1006.49V1146.42M-119.138 1146.42H-247.072M-119.138 1146.42H8.79611M-119.138 1146.42V1286.35M-247.072 1146.42V1286.35M8.79611 1146.42H136.73M8.79611 1146.42V1286.35M136.73 1146.42H264.664M136.73 1146.42V1286.35M264.664 1146.42H392.599M264.664 1146.42V1286.35M392.599 1146.42H520.533M392.599 1146.42V1286.35M520.533 1146.42H648.467M520.533 1146.42V1286.35M648.467 1146.42H776.401M648.467 1146.42V1286.35M776.401 1146.42H904.335M776.401 1146.42V1286.35M904.335 1146.42H1032.27M904.335 1146.42V1286.35M1032.27 1146.42H1160.2M1032.27 1146.42V1286.35M1160.2 1146.42H1288.14M1160.2 1146.42V1286.35M1288.14 1146.42H1416.07M1288.14 1146.42V1286.35M1416.07 1146.42H1544.01M1416.07 1146.42V1286.35M1544.01 1146.42H1671.94M1544.01 1146.42V1286.35M1671.94 1146.42V1286.35M-119.138 1286.35H-247.072M-119.138 1286.35H8.79611M-119.138 1286.35V1426.28M-247.072 1286.35V1426.28M8.79611 1286.35H136.73M8.79611 1286.35V1426.28M136.73 1286.35H264.664M136.73 1286.35V1426.28M264.664 1286.35H392.599M264.664 1286.35V1426.28M392.599 1286.35H520.533M392.599 1286.35V1426.28M520.533 1286.35H648.467M520.533 1286.35V1426.28M648.467 1286.35H776.401M648.467 1286.35V1426.28M776.401 1286.35H904.335M776.401 1286.35V1426.28M904.335 1286.35H1032.27M904.335 1286.35V1426.28M1032.27 1286.35H1160.2M1032.27 1286.35V1426.28M1160.2 1286.35H1288.14M1160.2 1286.35V1426.28M1288.14 1286.35H1416.07M1288.14 1286.35V1426.28M1416.07 1286.35H1544.01M1416.07 1286.35V1426.28M1544.01 1286.35H1671.94M1544.01 1286.35V1426.28M1671.94 1286.35V1426.28M-119.138 1426.28H-247.072M-119.138 1426.28H8.79611M-119.138 1426.28V1566.21M-247.072 1426.28V1566.21M8.79611 1426.28H136.73M8.79611 1426.28V1566.21M136.73 1426.28H264.664M136.73 1426.28V1566.21M264.664 1426.28H392.599M264.664 1426.28V1566.21M392.599 1426.28H520.533M392.599 1426.28V1566.21M520.533 1426.28H648.467M520.533 1426.28V1566.21M648.467 1426.28H776.401M648.467 1426.28V1566.21M776.401 1426.28H904.335M776.401 1426.28V1566.21M904.335 1426.28H1032.27M904.335 1426.28V1566.21M1032.27 1426.28H1160.2M1032.27 1426.28V1566.21M1160.2 1426.28H1288.14M1160.2 1426.28V1566.21M1288.14 1426.28H1416.07M1288.14 1426.28V1566.21M1416.07 1426.28H1544.01M1416.07 1426.28V1566.21M1544.01 1426.28H1671.94M1544.01 1426.28V1566.21M1671.94 1426.28V1566.21M-119.138 1566.21H-247.072M-119.138 1566.21H8.79611M-119.138 1566.21V1706.14M-247.072 1566.21V1706.14M8.79611 1566.21H136.73M8.79611 1566.21V1706.14M136.73 1566.21H264.664M136.73 1566.21V1706.14M264.664 1566.21H392.599M264.664 1566.21V1706.14M392.599 1566.21H520.533M392.599 1566.21V1706.14M520.533 1566.21H648.467M520.533 1566.21V1706.14M648.467 1566.21H776.401M648.467 1566.21V1706.14M776.401 1566.21H904.335M776.401 1566.21V1706.14M904.335 1566.21H1032.27M904.335 1566.21V1706.14M1032.27 1566.21H1160.2M1032.27 1566.21V1706.14M1160.2 1566.21H1288.14M1160.2 1566.21V1706.14M1288.14 1566.21H1416.07M1288.14 1566.21V1706.14M1416.07 1566.21H1544.01M1416.07 1566.21V1706.14M1544.01 1566.21H1671.94M1544.01 1566.21V1706.14M1671.94 1566.21V1706.14M-119.138 1706.14H-247.072M-119.138 1706.14H8.79611M-119.138 1706.14V1846.07M-247.072 1706.14V1846.07H-119.138M8.79611 1706.14H136.73M8.79611 1706.14V1846.07M136.73 1706.14H264.664M136.73 1706.14V1846.07M264.664 1706.14H392.599M264.664 1706.14V1846.07M392.599 1706.14H520.533M392.599 1706.14V1846.07M520.533 1706.14H648.467M520.533 1706.14V1846.07M648.467 1706.14H776.401M648.467 1706.14V1846.07M776.401 1706.14H904.335M776.401 1706.14V1846.07M904.335 1706.14H1032.27M904.335 1706.14V1846.07M1032.27 1706.14H1160.2M1032.27 1706.14V1846.07M1160.2 1706.14H1288.14M1160.2 1706.14V1846.07M1288.14 1706.14H1416.07M1288.14 1706.14V1846.07M1416.07 1706.14H1544.01M1416.07 1706.14V1846.07M1544.01 1706.14H1671.94M1544.01 1706.14V1846.07M1671.94 1706.14V1846.07H1544.01M-119.138 1846.07H8.79611M8.79611 1846.07H136.73M136.73 1846.07H264.664M264.664 1846.07H392.599M392.599 1846.07H520.533M520.533 1846.07H648.467M648.467 1846.07H776.401M776.401 1846.07H904.335M904.335 1846.07H1032.27M1032.27 1846.07H1160.2M1160.2 1846.07H1288.14M1288.14 1846.07H1416.07M1416.07 1846.07H1544.01" stroke="url(#paint0_radial_558_3)" stroke-opacity="0.2"/>
</g>
<defs>
<radialGradient id="paint0_radial_558_3" cx="0" cy="0" r="1" gradientUnits="userSpaceOnUse" gradientTransform="translate(713.505 797.468) rotate(90) scale(743.209 679.491)">
<stop stop-color="white"/>
<stop offset="1" stop-color="white" stop-opacity="0"/>
</radialGradient>
</defs>
</svg>
